<svg width="130" height="15" viewBox="0 0 130 15" fill="none" xmlns="http://www.w3.org/2000/svg">
<path d="M44.8299 0.640137H41.7344V14.5084H54.4667C56.3979 14.5084 57.9693 12.937 57.9693 11.0059V4.14271C57.9693 2.21156 56.3979 0.640137 54.4667 0.640137H44.8299ZM53.9082 11.4129H44.8299V3.73565H53.9082C54.4383 3.73565 54.8738 4.17111 54.8738 4.70123V10.4379C54.8738 10.968 54.4383 11.4034 53.9082 11.4034V11.4129Z" fill="#231F20"/>
<path d="M39.5527 14.4987V0.630371H36.4572V14.4987H39.5527Z" fill="#231F20"/>
<path d="M74.8438 3.73565V0.640137H63.0486H62.0736H59.9531V14.5084H62.0736H63.0486H74.8438V11.4129H63.0486V9.12204H74.8438V6.02653H63.0486V3.73565H74.8438Z" fill="#231F20"/>
<path d="M31.2028 0.592773C31.2028 1.28382 31.2028 3.12977 31.2028 3.73562C31.2028 3.71669 31.2028 3.71669 31.2028 3.69776V10.4946C31.2028 11.0248 30.7674 11.4602 30.2372 11.4602H23.0806C22.5505 11.4602 22.115 11.0248 22.115 10.4946V0.592773H19.0195V11.0532C19.0195 12.9843 20.591 14.5557 22.5221 14.5557H30.8052C32.7364 14.5557 34.3078 12.9843 34.3078 11.0532V0.592773H31.2123H31.2028Z" fill="#231F20"/>
<path d="M8.02489 6.07386V8.90432H13.7426V9.86989V10.4473C13.7426 10.9775 13.3071 11.4129 12.777 11.4129H4.66431C4.13419 11.4129 3.69873 10.9775 3.69873 10.4473V4.70123C3.69873 4.17111 4.13419 3.73565 4.66431 3.73565H15.9771V0.640137H4.09632C2.16517 0.640137 0.59375 2.21156 0.59375 4.14271V11.0059C0.59375 12.937 2.16517 14.5084 4.09632 14.5084H13.3261C15.2572 14.5084 16.8286 12.937 16.8286 11.0059V6.07386H8.02489Z" fill="#231F20"/>
<path fill-rule="evenodd" clip-rule="evenodd" d="M115.738 0.68281C115.769 0.678053 115.801 0.675781 115.831 0.675781H125.965C125.996 0.675781 126.028 0.678053 126.058 0.68281C126.661 0.777473 126.491 1.41809 125.88 1.41809H115.917C115.306 1.41809 115.135 0.777473 115.738 0.68281ZM100.822 0.906268C100.879 0.766851 101.015 0.675781 101.165 0.675781H106.111C106.262 0.675781 106.397 0.766851 106.454 0.906268C106.555 1.15046 106.375 1.41809 106.111 1.41809H101.165C100.902 1.41809 100.722 1.15046 100.822 0.906268ZM78.2793 1.04694C78.2793 0.841953 78.4455 0.675781 78.6505 0.675781H91.4642C91.4949 0.675781 91.5269 0.678057 91.5573 0.682824C92.1603 0.77757 91.9893 1.41809 91.3789 1.41809H78.6505C78.4455 1.41809 78.2793 1.25192 78.2793 1.04694ZM78.6504 2.82022C78.4455 2.82022 78.2793 2.98638 78.2793 3.19134C78.2793 3.39631 78.4455 3.56246 78.6504 3.56246H93.9729C94.231 3.56246 94.4281 3.32719 94.3497 3.08131C94.2983 2.91986 94.1441 2.82022 93.9747 2.82022H78.6504ZM100.287 2.82022C100.137 2.82022 100.001 2.91129 99.9437 3.05069C99.8437 3.29486 100.023 3.56246 100.287 3.56246H106.989C107.253 3.56246 107.433 3.29486 107.333 3.05069C107.276 2.91129 107.14 2.82022 106.989 2.82022H100.287ZM113.32 2.82022C113.151 2.82022 112.997 2.91986 112.945 3.0813C112.867 3.32719 113.064 3.56246 113.322 3.56246H128.475C128.733 3.56246 128.93 3.32719 128.851 3.0813C128.8 2.91986 128.646 2.82022 128.476 2.82022H113.32ZM129.016 5.33572C129.016 5.13075 128.85 4.9646 128.645 4.9646H126.291C126.086 4.9646 125.92 5.13075 125.92 5.33572C125.92 5.54068 126.086 5.70684 126.291 5.70684H128.645C128.85 5.70684 129.016 5.54068 129.016 5.33572ZM129.016 7.48009C129.016 7.27512 128.85 7.10897 128.645 7.10897H126.291C126.086 7.10897 125.92 7.27512 125.92 7.48009C125.92 7.68505 126.086 7.85121 126.291 7.85121H128.645C128.85 7.85121 129.016 7.68505 129.016 7.48009ZM129.016 9.62446C129.016 9.4195 128.85 9.25334 128.645 9.25334H126.291C126.086 9.25334 125.92 9.4195 125.92 9.62446C125.92 9.82942 126.086 9.99558 126.291 9.99558H128.645C128.85 9.99558 129.016 9.82942 129.016 9.62446ZM128.911 11.8577C128.971 11.6171 128.777 11.3977 128.529 11.3977H125.3C125.185 11.3977 125.07 11.4132 124.955 11.4132H116.842C116.727 11.4132 116.612 11.3977 116.497 11.3977H113.268C113.02 11.3977 112.825 11.6171 112.886 11.8577C112.929 12.0301 113.089 12.14 113.266 12.14H128.53C128.708 12.14 128.868 12.0301 128.911 11.8577ZM126.837 14.249C127.274 14.07 127.091 13.5421 126.619 13.5421H115.178C114.705 13.5421 114.523 14.07 114.96 14.249C115.018 14.2729 115.082 14.2843 115.145 14.2843H126.652C126.715 14.2843 126.779 14.2729 126.837 14.249ZM92.3351 14.249C92.2767 14.2729 92.213 14.2843 92.1499 14.2843H78.6504C78.4455 14.2843 78.2793 14.1182 78.2793 13.9132C78.2793 13.7082 78.4455 13.5421 78.6504 13.5421H92.1174C92.5895 13.5421 92.772 14.07 92.3351 14.249ZM99.0628 14.0537C99.0057 14.1932 98.87 14.2843 98.7193 14.2843H95.8959C95.6321 14.2843 95.4525 14.0167 95.5525 13.7725C95.6096 13.6331 95.7453 13.5421 95.8959 13.5421H98.7193C98.9831 13.5421 99.1627 13.8096 99.0628 14.0537ZM111.724 13.7725C111.824 14.0167 111.644 14.2843 111.381 14.2843H108.557C108.406 14.2843 108.271 14.1932 108.214 14.0537C108.114 13.8096 108.293 13.5421 108.557 13.5421H111.381C111.531 13.5421 111.667 13.6331 111.724 13.7725ZM110.502 12.14C110.766 12.14 110.946 11.8724 110.846 11.6282C110.789 11.4888 110.653 11.3977 110.502 11.3977H96.7742C96.6235 11.3977 96.4878 11.4888 96.4307 11.6282C96.3307 11.8724 96.5103 12.14 96.7742 12.14H110.502ZM94.0287 12.14C94.2065 12.14 94.3662 12.0301 94.4095 11.8578C94.4698 11.6171 94.2754 11.3977 94.0273 11.3977H90.5602C90.5265 11.4015 90.4924 11.4035 90.4578 11.4037C90.4552 11.4037 90.4531 11.4058 90.4531 11.4084C90.4531 11.411 90.451 11.4132 90.4484 11.4132H81.3825C81.3783 11.4132 81.3748 11.4097 81.3748 11.4054C81.3748 11.4012 81.3714 11.3977 81.3671 11.3977H78.6504C78.4455 11.3977 78.2793 11.5639 78.2793 11.7688C78.2793 11.9738 78.4455 12.14 78.6504 12.14H94.0287ZM78.2793 9.62446C78.2793 9.82942 78.4455 9.99558 78.6504 9.99558H81.0037C81.2087 9.99558 81.3748 9.82942 81.3748 9.62446C81.3748 9.4195 81.2087 9.25334 81.0037 9.25334H78.6504C78.4455 9.25334 78.2793 9.4195 78.2793 9.62446ZM78.2793 7.48009C78.2793 7.68505 78.4455 7.85121 78.6504 7.85121H81.0037C81.2087 7.85121 81.3748 7.68505 81.3748 7.48009C81.3748 7.27512 81.2087 7.10897 81.0037 7.10897H78.6504C78.4455 7.10897 78.2793 7.27512 78.2793 7.48009ZM78.2793 5.33572C78.2793 5.54068 78.4455 5.70684 78.6504 5.70684H81.0037C81.2087 5.70684 81.3748 5.54068 81.3748 5.33572C81.3748 5.13075 81.2087 4.9646 81.0037 4.9646H78.6504C78.4455 4.9646 78.2793 5.13075 78.2793 5.33572ZM91.7898 4.9646C91.5848 4.9646 91.4187 5.13075 91.4187 5.33572C91.4187 5.54068 91.5848 5.70684 91.7898 5.70684H94.1431C94.348 5.70684 94.5142 5.54068 94.5142 5.33572C94.5142 5.13075 94.348 4.9646 94.1431 4.9646H91.7898ZM99.4089 4.9646C99.2583 4.9646 99.1226 5.05566 99.0655 5.19506C98.9655 5.43923 99.145 5.70684 99.4089 5.70684H102.44C102.584 5.70684 102.715 5.62331 102.776 5.49265C102.891 5.2466 102.711 4.9646 102.44 4.9646H99.4089ZM104.837 4.9646C104.565 4.9646 104.386 5.2466 104.5 5.49265C104.561 5.62331 104.693 5.70684 104.837 5.70684H107.868C108.131 5.70684 108.311 5.43923 108.211 5.19506C108.154 5.05566 108.018 4.9646 107.868 4.9646H104.837ZM113.152 4.9646C112.947 4.9646 112.781 5.13075 112.781 5.33572C112.781 5.54068 112.947 5.70684 113.152 5.70684H115.505C115.71 5.70684 115.876 5.54068 115.876 5.33572C115.876 5.13075 115.71 4.9646 115.505 4.9646H113.152ZM115.876 7.48009C115.876 7.27512 115.71 7.10897 115.505 7.10897H113.152C112.947 7.10897 112.781 7.27512 112.781 7.48009C112.781 7.68505 112.947 7.85121 113.152 7.85121H115.505C115.71 7.85121 115.876 7.68505 115.876 7.48009ZM115.876 9.62446C115.876 9.4195 115.71 9.25334 115.505 9.25334H113.152C112.947 9.25334 112.781 9.4195 112.781 9.62446C112.781 9.82942 112.947 9.99558 113.152 9.99558H115.505C115.71 9.99558 115.876 9.82942 115.876 9.62446ZM109.624 9.99558C109.888 9.99558 110.067 9.72798 109.967 9.48381C109.91 9.3444 109.775 9.25334 109.624 9.25334H97.6524C97.5018 9.25334 97.3661 9.3444 97.309 9.48381C97.209 9.72798 97.3886 9.99558 97.6524 9.99558H109.624ZM94.1431 9.99558C94.348 9.99558 94.5142 9.82942 94.5142 9.62446C94.5142 9.4195 94.348 9.25334 94.1431 9.25334H91.7898C91.5848 9.25334 91.4187 9.4195 91.4187 9.62446C91.4187 9.82942 91.5848 9.99558 91.7898 9.99558H94.1431ZM91.4187 7.48009C91.4187 7.68505 91.5848 7.85121 91.7898 7.85121H94.1431C94.348 7.85121 94.5142 7.68505 94.5142 7.48009C94.5142 7.27512 94.348 7.10897 94.1431 7.10897H91.7898C91.5848 7.10897 91.4187 7.27512 91.4187 7.48009ZM98.5307 7.10897C98.38 7.10897 98.2443 7.20003 98.1872 7.33943C98.0872 7.58361 98.2668 7.85121 98.5307 7.85121H101.439C101.583 7.85121 101.714 7.76769 101.775 7.63702C101.89 7.39097 101.711 7.10897 101.439 7.10897H98.5307ZM105.837 7.10897C105.566 7.10897 105.386 7.39097 105.501 7.63702C105.562 7.76769 105.693 7.85121 105.837 7.85121H108.746C109.01 7.85121 109.189 7.58361 109.089 7.33943C109.032 7.20003 108.896 7.10897 108.746 7.10897H105.837Z" fill="#231F20"/>
</svg>
