<svg width="456" height="456" viewBox="0 0 456 456" fill="none" xmlns="http://www.w3.org/2000/svg">
<path d="M228 455.5C353.645 455.5 455.5 353.645 455.5 228C455.5 102.355 353.645 0.5 228 0.5C102.355 0.5 0.5 102.355 0.5 228C0.5 353.645 102.355 455.5 228 455.5Z" fill="white"/>
<path d="M228 436C342.875 436 436 342.875 436 228C436 113.125 342.875 20 228 20C113.125 20 20 113.125 20 228C20 342.875 113.125 436 228 436Z" fill="#F1E3F3" stroke="#231F20" stroke-width="9.33" stroke-miterlimit="10"/>
<path d="M228 455.5C353.645 455.5 455.5 353.645 455.5 228C455.5 102.355 353.645 0.5 228 0.5C102.355 0.5 0.5 102.355 0.5 228C0.5 353.645 102.355 455.5 228 455.5Z" fill="white"/>
<path d="M228 436C342.875 436 436 342.875 436 228C436 113.125 342.875 20 228 20C113.125 20 20 113.125 20 228C20 342.875 113.125 436 228 436Z" fill="#F1E3F3" stroke="#231F20" stroke-width="9.33" stroke-miterlimit="10"/>
<path d="M228 455.5C353.645 455.5 455.5 353.645 455.5 228C455.5 102.355 353.645 0.5 228 0.5C102.355 0.5 0.5 102.355 0.5 228C0.5 353.645 102.355 455.5 228 455.5Z" fill="white"/>
<path d="M228 436C342.875 436 436 342.875 436 228C436 113.125 342.875 20 228 20C113.125 20 20 113.125 20 228C20 342.875 113.125 436 228 436Z" fill="#F1E3F3" stroke="#231F20" stroke-width="9.33" stroke-miterlimit="10"/>
<path d="M228 455.5C353.645 455.5 455.5 353.645 455.5 228C455.5 102.355 353.645 0.5 228 0.5C102.355 0.5 0.5 102.355 0.5 228C0.5 353.645 102.355 455.5 228 455.5Z" fill="white"/>
<path d="M228 436C342.875 436 436 342.875 436 228C436 113.125 342.875 20 228 20C113.125 20 20 113.125 20 228C20 342.875 113.125 436 228 436Z" fill="#F1E3F3" stroke="#231F20" stroke-width="9.33" stroke-miterlimit="10"/>
<path d="M272.57 303.61C270.81 303.61 268.94 303.17 266.96 302.29C265.2 301.19 263.33 300.09 261.35 298.99L148.49 233.98C145.85 232.44 143.87 230.68 142.55 228.7C141.45 226.5 140.9 224.08 140.9 221.44C140.9 218.58 141.56 216.16 142.88 214.18C144.42 211.98 146.51 210.11 149.15 208.57L260.69 144.88C262.45 143.78 264.21 142.9 265.97 142.24C267.73 141.58 269.38 141.25 270.92 141.25C274.22 141.25 277.08 142.68 279.5 145.54C282.14 148.18 283.46 151.04 283.46 154.12C283.46 156.32 282.91 158.3 281.81 160.06C280.93 161.6 279.39 162.92 277.19 164.02L161.69 229.69L160.37 212.86L276.2 279.52C279.06 281.06 281.04 282.71 282.14 284.47C283.24 286.01 283.79 287.99 283.79 290.41C283.79 293.71 282.58 296.79 280.16 299.65C277.74 302.29 275.21 303.61 272.57 303.61Z" fill="white"/>
<path d="M266.96 302.29L263.78 307.378L264.138 307.602L264.523 307.773L266.96 302.29ZM261.35 298.99L258.355 304.189L258.395 304.212L258.436 304.235L261.35 298.99ZM148.49 233.98L145.467 239.163L145.481 239.171L145.495 239.179L148.49 233.98ZM142.55 228.7L137.183 231.383L137.35 231.717L137.558 232.028L142.55 228.7ZM142.88 214.18L137.965 210.739L137.926 210.795L137.888 210.852L142.88 214.18ZM149.15 208.57L146.175 203.36L146.151 203.373L146.127 203.387L149.15 208.57ZM260.69 144.88L263.665 150.09L263.769 150.031L263.87 149.968L260.69 144.88ZM265.97 142.24L263.863 136.622L263.863 136.622L265.97 142.24ZM279.5 145.54L274.92 149.416L275.081 149.606L275.257 149.783L279.5 145.54ZM281.81 160.06L276.722 156.88L276.659 156.98L276.601 157.083L281.81 160.06ZM277.19 164.02L274.507 158.653L274.364 158.725L274.224 158.804L277.19 164.02ZM161.69 229.69L155.708 230.159L156.447 239.573L164.656 234.906L161.69 229.69ZM160.37 212.86L163.363 207.66L153.498 201.983L154.388 213.329L160.37 212.86ZM276.2 279.52L273.207 284.72L273.281 284.763L273.355 284.803L276.2 279.52ZM282.14 284.47L277.052 287.65L277.15 287.807L277.258 287.957L282.14 284.47ZM280.16 299.65L284.583 303.704L284.663 303.617L284.74 303.526L280.16 299.65ZM272.57 297.61C271.82 297.61 270.782 297.423 269.397 296.807L264.523 307.773C267.098 308.917 269.8 309.61 272.57 309.61V297.61ZM270.14 297.202C268.285 296.043 266.326 294.891 264.264 293.745L258.436 304.235C260.334 305.289 262.115 306.337 263.78 307.378L270.14 297.202ZM264.345 293.791L151.485 228.781L145.495 239.179L258.355 304.189L264.345 293.791ZM151.513 228.797C149.445 227.591 148.233 226.407 147.542 225.372L137.558 232.028C139.507 234.953 142.255 237.289 145.467 239.163L151.513 228.797ZM147.917 226.017C147.263 224.71 146.9 223.218 146.9 221.44H134.9C134.9 224.942 135.637 228.29 137.183 231.383L147.917 226.017ZM146.9 221.44C146.9 219.522 147.332 218.318 147.872 217.508L137.888 210.852C135.788 214.002 134.9 217.638 134.9 221.44H146.9ZM147.795 217.621C148.774 216.223 150.179 214.916 152.173 213.753L146.127 203.387C142.841 205.304 140.066 207.737 137.965 210.739L147.795 217.621ZM152.125 213.78L263.665 150.09L257.715 139.67L146.175 203.36L152.125 213.78ZM263.87 149.968C265.325 149.058 266.728 148.364 268.077 147.858L263.863 136.622C261.692 137.436 259.575 138.502 257.51 139.792L263.87 149.968ZM268.077 147.858C269.307 147.397 270.239 147.25 270.92 147.25V135.25C268.521 135.25 266.153 135.763 263.863 136.622L268.077 147.858ZM270.92 147.25C272.204 147.25 273.467 147.699 274.92 149.416L284.08 141.664C280.693 137.661 276.236 135.25 270.92 135.25V147.25ZM275.257 149.783C277.027 151.552 277.46 152.959 277.46 154.12H289.46C289.46 149.121 287.253 144.808 283.743 141.297L275.257 149.783ZM277.46 154.12C277.46 155.266 277.19 156.132 276.722 156.88L286.898 163.24C288.63 160.468 289.46 157.374 289.46 154.12H277.46ZM276.601 157.083C276.495 157.268 276.043 157.885 274.507 158.653L279.873 169.387C282.737 167.955 285.365 165.932 287.019 163.037L276.601 157.083ZM274.224 158.804L158.724 224.474L164.656 234.906L280.156 169.236L274.224 158.804ZM167.672 229.221L166.352 212.391L154.388 213.329L155.708 230.159L167.672 229.221ZM157.377 218.06L273.207 284.72L279.193 274.32L163.363 207.66L157.377 218.06ZM273.355 284.803C275.769 286.103 276.732 287.138 277.052 287.65L287.228 281.29C285.348 278.282 282.351 276.017 279.045 274.237L273.355 284.803ZM277.258 287.957C277.451 288.228 277.79 288.891 277.79 290.41H289.79C289.79 287.089 289.029 283.792 287.022 280.983L277.258 287.957ZM277.79 290.41C277.79 292.099 277.215 293.842 275.58 295.774L284.74 303.526C287.945 299.738 289.79 295.321 289.79 290.41H277.79ZM275.737 295.596C274.032 297.456 272.992 297.61 272.57 297.61V309.61C277.428 309.61 281.448 307.124 284.583 303.704L275.737 295.596Z" fill="#232323"/>
</svg>
