<svg width="456" height="456" viewBox="0 0 456 456" fill="none" xmlns="http://www.w3.org/2000/svg">
<path d="M228 455.5C353.645 455.5 455.5 353.645 455.5 228C455.5 102.355 353.645 0.5 228 0.5C102.355 0.5 0.5 102.355 0.5 228C0.5 353.645 102.355 455.5 228 455.5Z" fill="white"/>
<path d="M228 436C342.875 436 436 342.875 436 228C436 113.125 342.875 20 228 20C113.125 20 20 113.125 20 228C20 342.875 113.125 436 228 436Z" fill="#F1E3F3" stroke="#231F20" stroke-width="9.33" stroke-miterlimit="10"/>
<path d="M228 455.5C353.645 455.5 455.5 353.645 455.5 228C455.5 102.355 353.645 0.5 228 0.5C102.355 0.5 0.5 102.355 0.5 228C0.5 353.645 102.355 455.5 228 455.5Z" fill="white"/>
<path d="M228 436C342.875 436 436 342.875 436 228C436 113.125 342.875 20 228 20C113.125 20 20 113.125 20 228C20 342.875 113.125 436 228 436Z" fill="#F1E3F3" stroke="#231F20" stroke-width="9.33" stroke-miterlimit="10"/>
<path d="M228 455.5C353.645 455.5 455.5 353.645 455.5 228C455.5 102.355 353.645 0.5 228 0.5C102.355 0.5 0.5 102.355 0.5 228C0.5 353.645 102.355 455.5 228 455.5Z" fill="white"/>
<path d="M228 436C342.875 436 436 342.875 436 228C436 113.125 342.875 20 228 20C113.125 20 20 113.125 20 228C20 342.875 113.125 436 228 436Z" fill="#F1E3F3" stroke="#231F20" stroke-width="9.33" stroke-miterlimit="10"/>
<path d="M228 455.5C353.645 455.5 455.5 353.645 455.5 228C455.5 102.355 353.645 0.5 228 0.5C102.355 0.5 0.5 102.355 0.5 228C0.5 353.645 102.355 455.5 228 455.5Z" fill="white"/>
<path d="M228 436C342.875 436 436 342.875 436 228C436 113.125 342.875 20 228 20C113.125 20 20 113.125 20 228C20 342.875 113.125 436 228 436Z" fill="#F1E3F3" stroke="#231F20" stroke-width="9.33" stroke-miterlimit="10"/>
<path d="M190.01 300.97C186.93 300.97 184.07 299.65 181.43 297.01C179.01 294.15 177.8 291.18 177.8 288.1C177.8 285.68 178.35 283.7 179.45 282.16C180.77 280.62 182.75 279.08 185.39 277.54L301.88 212.86L302.87 230.02L184.73 162.37C182.75 161.05 181.21 159.62 180.11 158.08C179.01 156.32 178.46 154.23 178.46 151.81C178.46 148.29 179.67 145.21 182.09 142.57C184.73 139.93 187.48 138.72 190.34 138.94C192.1 138.94 193.86 139.38 195.62 140.26C197.38 141.14 199.25 142.13 201.23 143.23L314.42 207.91C316.84 209.23 318.71 210.99 320.03 213.19C321.57 215.39 322.34 217.81 322.34 220.45C322.34 223.31 321.79 225.84 320.69 228.04C319.59 230.02 317.72 231.78 315.08 233.32L200.57 297.34C198.81 298.22 197.05 299.1 195.29 299.98C193.53 300.64 191.77 300.97 190.01 300.97Z" fill="white"/>
<path d="M181.43 297.01L176.85 300.886L177.011 301.076L177.187 301.253L181.43 297.01ZM179.45 282.16L174.894 278.255L174.722 278.457L174.568 278.673L179.45 282.16ZM185.39 277.54L182.477 272.294L182.422 272.325L182.367 272.357L185.39 277.54ZM301.88 212.86L307.87 212.514L307.32 202.977L298.967 207.614L301.88 212.86ZM302.87 230.02L299.888 235.227L309.498 240.729L308.86 229.674L302.87 230.02ZM184.73 162.37L181.402 167.362L181.571 167.475L181.748 167.577L184.73 162.37ZM180.11 158.08L175.022 161.26L175.12 161.417L175.228 161.567L180.11 158.08ZM182.09 142.57L177.847 138.327L177.755 138.42L177.667 138.516L182.09 142.57ZM190.34 138.94L189.88 144.922L190.11 144.94H190.34V138.94ZM201.23 143.23L204.207 138.021L204.175 138.003L204.144 137.985L201.23 143.23ZM314.42 207.91L311.443 213.119L311.495 213.149L311.547 213.177L314.42 207.91ZM320.03 213.19L314.885 216.277L314.994 216.458L315.115 216.631L320.03 213.19ZM320.69 228.04L325.935 230.954L325.998 230.84L326.057 230.723L320.69 228.04ZM315.08 233.32L318.008 238.557L318.056 238.53L318.103 238.503L315.08 233.32ZM200.57 297.34L203.253 302.707L203.377 302.645L203.498 302.577L200.57 297.34ZM195.29 299.98L197.397 305.598L197.692 305.487L197.973 305.347L195.29 299.98ZM190.01 294.97C188.849 294.97 187.442 294.537 185.673 292.767L177.187 301.253C180.698 304.763 185.011 306.97 190.01 306.97V294.97ZM186.01 293.134C184.301 291.114 183.8 289.471 183.8 288.1H171.8C171.8 292.889 173.719 297.186 176.85 300.886L186.01 293.134ZM183.8 288.1C183.8 286.581 184.139 285.918 184.332 285.647L174.568 278.673C172.561 281.482 171.8 284.779 171.8 288.1H183.8ZM184.006 286.065C184.728 285.222 186.089 284.079 188.413 282.723L182.367 272.357C179.411 274.081 176.812 276.018 174.894 278.255L184.006 286.065ZM188.303 282.786L304.793 218.106L298.967 207.614L182.477 272.294L188.303 282.786ZM295.89 213.206L296.88 230.366L308.86 229.674L307.87 212.514L295.89 213.206ZM305.852 224.813L187.712 157.163L181.748 167.577L299.888 235.227L305.852 224.813ZM188.058 157.378C186.534 156.361 185.577 155.411 184.992 154.593L175.228 161.567C176.843 163.829 178.966 165.739 181.402 167.362L188.058 157.378ZM185.198 154.9C184.787 154.243 184.46 153.295 184.46 151.81H172.46C172.46 155.165 173.233 158.397 175.022 161.26L185.198 154.9ZM184.46 151.81C184.46 149.82 185.088 148.179 186.513 146.624L177.667 138.516C174.252 142.241 172.46 146.76 172.46 151.81H184.46ZM186.333 146.813C188.133 145.012 189.26 144.875 189.88 144.922L190.8 132.958C185.7 132.565 181.327 134.848 177.847 138.327L186.333 146.813ZM190.34 144.94C191.063 144.94 191.91 145.113 192.937 145.627L198.303 134.893C195.81 133.647 193.137 132.94 190.34 132.94V144.94ZM192.937 145.627C194.608 146.462 196.401 147.411 198.316 148.475L204.144 137.985C202.099 136.849 200.152 135.818 198.303 134.893L192.937 145.627ZM198.253 148.439L311.443 213.119L317.397 202.701L204.207 138.021L198.253 148.439ZM311.547 213.177C313.101 214.025 314.156 215.061 314.885 216.277L325.175 210.103C323.264 206.919 320.579 204.435 317.293 202.643L311.547 213.177ZM315.115 216.631C315.962 217.841 316.34 219.063 316.34 220.45H328.34C328.34 216.556 327.178 212.939 324.945 209.749L315.115 216.631ZM316.34 220.45C316.34 222.53 315.944 224.116 315.323 225.357L326.057 230.723C327.636 227.564 328.34 224.09 328.34 220.45H316.34ZM315.445 225.126C315.02 225.89 314.08 226.957 312.057 228.137L318.103 238.503C321.36 236.603 324.16 234.15 325.935 230.954L315.445 225.126ZM312.152 228.083L197.642 292.103L203.498 302.577L318.008 238.557L312.152 228.083ZM197.887 291.973C197.883 291.975 197.88 291.977 197.876 291.979C197.873 291.98 197.87 291.982 197.866 291.984C197.863 291.985 197.859 291.987 197.856 291.989C197.852 291.991 197.849 291.992 197.845 291.994C197.842 291.996 197.839 291.997 197.835 291.999C197.832 292.001 197.828 292.003 197.825 292.004C197.821 292.006 197.818 292.008 197.815 292.01C197.811 292.011 197.808 292.013 197.804 292.015C197.801 292.016 197.797 292.018 197.794 292.02C197.79 292.022 197.787 292.023 197.784 292.025C197.78 292.027 197.777 292.028 197.773 292.03C197.77 292.032 197.766 292.034 197.763 292.035C197.76 292.037 197.756 292.039 197.753 292.04C197.749 292.042 197.746 292.044 197.742 292.046C197.739 292.047 197.735 292.049 197.732 292.051C197.729 292.052 197.725 292.054 197.722 292.056C197.718 292.058 197.715 292.059 197.711 292.061C197.708 292.063 197.705 292.065 197.701 292.066C197.698 292.068 197.694 292.07 197.691 292.071C197.687 292.073 197.684 292.075 197.68 292.077C197.677 292.078 197.674 292.08 197.67 292.082C197.667 292.083 197.663 292.085 197.66 292.087C197.656 292.089 197.653 292.09 197.65 292.092C197.646 292.094 197.643 292.095 197.639 292.097C197.636 292.099 197.632 292.101 197.629 292.102C197.625 292.104 197.622 292.106 197.619 292.107C197.615 292.109 197.612 292.111 197.608 292.113C197.605 292.114 197.601 292.116 197.598 292.118C197.595 292.12 197.591 292.121 197.588 292.123C197.584 292.125 197.581 292.126 197.577 292.128C197.574 292.13 197.57 292.132 197.567 292.133C197.564 292.135 197.56 292.137 197.557 292.138C197.553 292.14 197.55 292.142 197.546 292.144C197.543 292.145 197.54 292.147 197.536 292.149C197.533 292.15 197.529 292.152 197.526 292.154C197.522 292.156 197.519 292.157 197.515 292.159C197.512 292.161 197.509 292.162 197.505 292.164C197.502 292.166 197.498 292.168 197.495 292.169C197.491 292.171 197.488 292.173 197.485 292.175C197.481 292.176 197.478 292.178 197.474 292.18C197.471 292.181 197.467 292.183 197.464 292.185C197.46 292.187 197.457 292.188 197.454 292.19C197.45 292.192 197.447 292.193 197.443 292.195C197.44 292.197 197.436 292.199 197.433 292.2C197.43 292.202 197.426 292.204 197.423 292.205C197.419 292.207 197.416 292.209 197.412 292.211C197.409 292.212 197.405 292.214 197.402 292.216C197.399 292.217 197.395 292.219 197.392 292.221C197.388 292.223 197.385 292.224 197.381 292.226C197.378 292.228 197.375 292.23 197.371 292.231C197.368 292.233 197.364 292.235 197.361 292.236C197.357 292.238 197.354 292.24 197.35 292.242C197.347 292.243 197.344 292.245 197.34 292.247C197.337 292.248 197.333 292.25 197.33 292.252C197.326 292.254 197.323 292.255 197.32 292.257C197.316 292.259 197.313 292.26 197.309 292.262C197.306 292.264 197.302 292.266 197.299 292.267C197.295 292.269 197.292 292.271 197.289 292.272C197.285 292.274 197.282 292.276 197.278 292.278C197.275 292.279 197.271 292.281 197.268 292.283C197.265 292.285 197.261 292.286 197.258 292.288C197.254 292.29 197.251 292.291 197.247 292.293C197.244 292.295 197.24 292.297 197.237 292.298C197.234 292.3 197.23 292.302 197.227 292.303C197.223 292.305 197.22 292.307 197.216 292.309C197.213 292.31 197.21 292.312 197.206 292.314C197.203 292.315 197.199 292.317 197.196 292.319C197.192 292.321 197.189 292.322 197.185 292.324C197.182 292.326 197.179 292.327 197.175 292.329C197.172 292.331 197.168 292.333 197.165 292.334C197.161 292.336 197.158 292.338 197.155 292.34C197.151 292.341 197.148 292.343 197.144 292.345C197.141 292.346 197.137 292.348 197.134 292.35C197.13 292.352 197.127 292.353 197.124 292.355C197.12 292.357 197.117 292.358 197.113 292.36C197.11 292.362 197.106 292.364 197.103 292.365C197.1 292.367 197.096 292.369 197.093 292.37C197.089 292.372 197.086 292.374 197.082 292.376C197.079 292.377 197.075 292.379 197.072 292.381C197.069 292.382 197.065 292.384 197.062 292.386C197.058 292.388 197.055 292.389 197.051 292.391C197.048 292.393 197.045 292.395 197.041 292.396C197.038 292.398 197.034 292.4 197.031 292.401C197.027 292.403 197.024 292.405 197.02 292.407C197.017 292.408 197.014 292.41 197.01 292.412C197.007 292.413 197.003 292.415 197 292.417C196.996 292.419 196.993 292.42 196.99 292.422C196.986 292.424 196.983 292.425 196.979 292.427C196.976 292.429 196.972 292.431 196.969 292.432C196.965 292.434 196.962 292.436 196.959 292.437C196.955 292.439 196.952 292.441 196.948 292.443C196.945 292.444 196.941 292.446 196.938 292.448C196.935 292.45 196.931 292.451 196.928 292.453C196.924 292.455 196.921 292.456 196.917 292.458C196.914 292.46 196.91 292.462 196.907 292.463C196.904 292.465 196.9 292.467 196.897 292.468C196.893 292.47 196.89 292.472 196.886 292.474C196.883 292.475 196.88 292.477 196.876 292.479C196.873 292.48 196.869 292.482 196.866 292.484C196.862 292.486 196.859 292.487 196.855 292.489C196.852 292.491 196.849 292.492 196.845 292.494C196.842 292.496 196.838 292.498 196.835 292.499C196.831 292.501 196.828 292.503 196.825 292.505C196.821 292.506 196.818 292.508 196.814 292.51C196.811 292.511 196.807 292.513 196.804 292.515C196.8 292.517 196.797 292.518 196.794 292.52C196.79 292.522 196.787 292.523 196.783 292.525C196.78 292.527 196.776 292.529 196.773 292.53C196.77 292.532 196.766 292.534 196.763 292.535C196.759 292.537 196.756 292.539 196.752 292.541C196.749 292.542 196.745 292.544 196.742 292.546C196.739 292.547 196.735 292.549 196.732 292.551C196.728 292.553 196.725 292.554 196.721 292.556C196.718 292.558 196.715 292.56 196.711 292.561C196.708 292.563 196.704 292.565 196.701 292.566C196.697 292.568 196.694 292.57 196.69 292.572C196.687 292.573 196.684 292.575 196.68 292.577C196.677 292.578 196.673 292.58 196.67 292.582C196.666 292.584 196.663 292.585 196.66 292.587C196.656 292.589 196.653 292.59 196.649 292.592C196.646 292.594 196.642 292.596 196.639 292.597C196.635 292.599 196.632 292.601 196.629 292.602C196.625 292.604 196.622 292.606 196.618 292.608C196.615 292.609 196.611 292.611 196.608 292.613C196.605 292.615 196.601 292.616 196.598 292.618C196.594 292.62 196.591 292.621 196.587 292.623C196.584 292.625 196.58 292.627 196.577 292.628C196.574 292.63 196.57 292.632 196.567 292.633C196.563 292.635 196.56 292.637 196.556 292.639C196.553 292.64 196.55 292.642 196.546 292.644C196.543 292.645 196.539 292.647 196.536 292.649C196.532 292.651 196.529 292.652 196.525 292.654C196.522 292.656 196.519 292.657 196.515 292.659C196.512 292.661 196.508 292.663 196.505 292.664C196.501 292.666 196.498 292.668 196.495 292.67C196.491 292.671 196.488 292.673 196.484 292.675C196.481 292.676 196.477 292.678 196.474 292.68C196.47 292.682 196.467 292.683 196.464 292.685C196.46 292.687 196.457 292.688 196.453 292.69C196.45 292.692 196.446 292.694 196.443 292.695C196.44 292.697 196.436 292.699 196.433 292.7C196.429 292.702 196.426 292.704 196.422 292.706C196.419 292.707 196.415 292.709 196.412 292.711C196.409 292.712 196.405 292.714 196.402 292.716C196.398 292.718 196.395 292.719 196.391 292.721C196.388 292.723 196.385 292.725 196.381 292.726C196.378 292.728 196.374 292.73 196.371 292.731C196.367 292.733 196.364 292.735 196.36 292.737C196.357 292.738 196.354 292.74 196.35 292.742C196.347 292.743 196.343 292.745 196.34 292.747C196.336 292.749 196.333 292.75 196.33 292.752C196.326 292.754 196.323 292.755 196.319 292.757C196.316 292.759 196.312 292.761 196.309 292.762C196.305 292.764 196.302 292.766 196.299 292.767C196.295 292.769 196.292 292.771 196.288 292.773C196.285 292.774 196.281 292.776 196.278 292.778C196.275 292.78 196.271 292.781 196.268 292.783C196.264 292.785 196.261 292.786 196.257 292.788C196.254 292.79 196.25 292.792 196.247 292.793C196.244 292.795 196.24 292.797 196.237 292.798C196.233 292.8 196.23 292.802 196.226 292.804C196.223 292.805 196.22 292.807 196.216 292.809C196.213 292.81 196.209 292.812 196.206 292.814C196.202 292.816 196.199 292.817 196.195 292.819C196.192 292.821 196.189 292.822 196.185 292.824C196.182 292.826 196.178 292.828 196.175 292.829C196.171 292.831 196.168 292.833 196.165 292.835C196.161 292.836 196.158 292.838 196.154 292.84C196.151 292.841 196.147 292.843 196.144 292.845C196.14 292.847 196.137 292.848 196.134 292.85C196.13 292.852 196.127 292.853 196.123 292.855C196.12 292.857 196.116 292.859 196.113 292.86C196.11 292.862 196.106 292.864 196.103 292.865C196.099 292.867 196.096 292.869 196.092 292.871C196.089 292.872 196.085 292.874 196.082 292.876C196.079 292.877 196.075 292.879 196.072 292.881C196.068 292.883 196.065 292.884 196.061 292.886C196.058 292.888 196.055 292.89 196.051 292.891C196.048 292.893 196.044 292.895 196.041 292.896C196.037 292.898 196.034 292.9 196.03 292.902C196.027 292.903 196.024 292.905 196.02 292.907C196.017 292.908 196.013 292.91 196.01 292.912C196.006 292.914 196.003 292.915 196 292.917C195.996 292.919 195.993 292.92 195.989 292.922C195.986 292.924 195.982 292.926 195.979 292.927C195.975 292.929 195.972 292.931 195.969 292.932C195.965 292.934 195.962 292.936 195.958 292.938C195.955 292.939 195.951 292.941 195.948 292.943C195.945 292.945 195.941 292.946 195.938 292.948C195.934 292.95 195.931 292.951 195.927 292.953C195.924 292.955 195.92 292.957 195.917 292.958C195.914 292.96 195.91 292.962 195.907 292.963C195.903 292.965 195.9 292.967 195.896 292.969C195.893 292.97 195.89 292.972 195.886 292.974C195.883 292.975 195.879 292.977 195.876 292.979C195.872 292.981 195.869 292.982 195.865 292.984C195.862 292.986 195.859 292.987 195.855 292.989C195.852 292.991 195.848 292.993 195.845 292.994C195.841 292.996 195.838 292.998 195.835 293C195.831 293.001 195.828 293.003 195.824 293.005C195.821 293.006 195.817 293.008 195.814 293.01C195.81 293.012 195.807 293.013 195.804 293.015C195.8 293.017 195.797 293.018 195.793 293.02C195.79 293.022 195.786 293.024 195.783 293.025C195.78 293.027 195.776 293.029 195.773 293.03C195.769 293.032 195.766 293.034 195.762 293.036C195.759 293.037 195.755 293.039 195.752 293.041C195.749 293.042 195.745 293.044 195.742 293.046C195.738 293.048 195.735 293.049 195.731 293.051C195.728 293.053 195.725 293.055 195.721 293.056C195.718 293.058 195.714 293.06 195.711 293.061C195.707 293.063 195.704 293.065 195.7 293.067C195.697 293.068 195.694 293.07 195.69 293.072C195.687 293.073 195.683 293.075 195.68 293.077C195.676 293.079 195.673 293.08 195.67 293.082C195.666 293.084 195.663 293.085 195.659 293.087C195.656 293.089 195.652 293.091 195.649 293.092C195.645 293.094 195.642 293.096 195.639 293.097C195.635 293.099 195.632 293.101 195.628 293.103C195.625 293.104 195.621 293.106 195.618 293.108C195.615 293.11 195.611 293.111 195.608 293.113C195.604 293.115 195.601 293.116 195.597 293.118C195.594 293.12 195.59 293.122 195.587 293.123C195.584 293.125 195.58 293.127 195.577 293.128C195.573 293.13 195.57 293.132 195.566 293.134C195.563 293.135 195.56 293.137 195.556 293.139C195.553 293.14 195.549 293.142 195.546 293.144C195.542 293.146 195.539 293.147 195.535 293.149C195.532 293.151 195.529 293.152 195.525 293.154C195.522 293.156 195.518 293.158 195.515 293.159C195.511 293.161 195.508 293.163 195.505 293.165C195.501 293.166 195.498 293.168 195.494 293.17C195.491 293.171 195.487 293.173 195.484 293.175C195.48 293.177 195.477 293.178 195.474 293.18C195.47 293.182 195.467 293.183 195.463 293.185C195.46 293.187 195.456 293.189 195.453 293.19C195.45 293.192 195.446 293.194 195.443 293.195C195.439 293.197 195.436 293.199 195.432 293.201C195.429 293.202 195.425 293.204 195.422 293.206C195.419 293.207 195.415 293.209 195.412 293.211C195.408 293.213 195.405 293.214 195.401 293.216C195.398 293.218 195.395 293.22 195.391 293.221C195.388 293.223 195.384 293.225 195.381 293.226C195.377 293.228 195.374 293.23 195.37 293.232C195.367 293.233 195.364 293.235 195.36 293.237C195.357 293.238 195.353 293.24 195.35 293.242C195.346 293.244 195.343 293.245 195.34 293.247C195.336 293.249 195.333 293.25 195.329 293.252C195.326 293.254 195.322 293.256 195.319 293.257C195.315 293.259 195.312 293.261 195.309 293.262C195.305 293.264 195.302 293.266 195.298 293.268C195.295 293.269 195.291 293.271 195.288 293.273C195.285 293.275 195.281 293.276 195.278 293.278C195.274 293.28 195.271 293.281 195.267 293.283C195.264 293.285 195.26 293.287 195.257 293.288C195.254 293.29 195.25 293.292 195.247 293.293C195.243 293.295 195.24 293.297 195.236 293.299C195.233 293.3 195.23 293.302 195.226 293.304C195.223 293.305 195.219 293.307 195.216 293.309C195.212 293.311 195.209 293.312 195.205 293.314C195.202 293.316 195.199 293.317 195.195 293.319C195.192 293.321 195.188 293.323 195.185 293.324C195.181 293.326 195.178 293.328 195.175 293.33C195.171 293.331 195.168 293.333 195.164 293.335C195.161 293.336 195.157 293.338 195.154 293.34C195.15 293.342 195.147 293.343 195.144 293.345C195.14 293.347 195.137 293.348 195.133 293.35C195.13 293.352 195.126 293.354 195.123 293.355C195.12 293.357 195.116 293.359 195.113 293.36C195.109 293.362 195.106 293.364 195.102 293.366C195.099 293.367 195.095 293.369 195.092 293.371C195.089 293.372 195.085 293.374 195.082 293.376C195.078 293.378 195.075 293.379 195.071 293.381C195.068 293.383 195.065 293.385 195.061 293.386C195.058 293.388 195.054 293.39 195.051 293.391C195.047 293.393 195.044 293.395 195.04 293.397C195.037 293.398 195.034 293.4 195.03 293.402C195.027 293.403 195.023 293.405 195.02 293.407C195.016 293.409 195.013 293.41 195.01 293.412C195.006 293.414 195.003 293.415 194.999 293.417C194.996 293.419 194.992 293.421 194.989 293.422C194.985 293.424 194.982 293.426 194.979 293.427C194.975 293.429 194.972 293.431 194.968 293.433C194.965 293.434 194.961 293.436 194.958 293.438C194.955 293.44 194.951 293.441 194.948 293.443C194.944 293.445 194.941 293.446 194.937 293.448C194.934 293.45 194.93 293.452 194.927 293.453C194.924 293.455 194.92 293.457 194.917 293.458C194.913 293.46 194.91 293.462 194.906 293.464C194.903 293.465 194.9 293.467 194.896 293.469C194.893 293.47 194.889 293.472 194.886 293.474C194.882 293.476 194.879 293.477 194.875 293.479C194.872 293.481 194.869 293.482 194.865 293.484C194.862 293.486 194.858 293.488 194.855 293.489C194.851 293.491 194.848 293.493 194.845 293.495C194.841 293.496 194.838 293.498 194.834 293.5C194.831 293.501 194.827 293.503 194.824 293.505C194.82 293.507 194.817 293.508 194.814 293.51C194.81 293.512 194.807 293.513 194.803 293.515C194.8 293.517 194.796 293.519 194.793 293.52C194.79 293.522 194.786 293.524 194.783 293.525C194.779 293.527 194.776 293.529 194.772 293.531C194.769 293.532 194.765 293.534 194.762 293.536C194.759 293.537 194.755 293.539 194.752 293.541C194.748 293.543 194.745 293.544 194.741 293.546C194.738 293.548 194.735 293.55 194.731 293.551C194.728 293.553 194.724 293.555 194.721 293.556C194.717 293.558 194.714 293.56 194.71 293.562C194.707 293.563 194.704 293.565 194.7 293.567C194.697 293.568 194.693 293.57 194.69 293.572C194.686 293.574 194.683 293.575 194.68 293.577C194.676 293.579 194.673 293.58 194.669 293.582C194.666 293.584 194.662 293.586 194.659 293.587C194.655 293.589 194.652 293.591 194.649 293.592C194.645 293.594 194.642 293.596 194.638 293.598C194.635 293.599 194.631 293.601 194.628 293.603C194.625 293.605 194.621 293.606 194.618 293.608C194.614 293.61 194.611 293.611 194.607 293.613C194.604 293.615 194.6 293.617 194.597 293.618C194.594 293.62 194.59 293.622 194.587 293.623C194.583 293.625 194.58 293.627 194.576 293.629C194.573 293.63 194.57 293.632 194.566 293.634C194.563 293.635 194.559 293.637 194.556 293.639C194.552 293.641 194.549 293.642 194.545 293.644C194.542 293.646 194.539 293.647 194.535 293.649C194.532 293.651 194.528 293.653 194.525 293.654C194.521 293.656 194.518 293.658 194.515 293.66C194.511 293.661 194.508 293.663 194.504 293.665C194.501 293.666 194.497 293.668 194.494 293.67C194.49 293.672 194.487 293.673 194.484 293.675C194.48 293.677 194.477 293.678 194.473 293.68C194.47 293.682 194.466 293.684 194.463 293.685C194.46 293.687 194.456 293.689 194.453 293.69C194.449 293.692 194.446 293.694 194.442 293.696C194.439 293.697 194.435 293.699 194.432 293.701C194.429 293.702 194.425 293.704 194.422 293.706C194.418 293.708 194.415 293.709 194.411 293.711C194.408 293.713 194.405 293.715 194.401 293.716C194.398 293.718 194.394 293.72 194.391 293.721C194.387 293.723 194.384 293.725 194.38 293.727C194.377 293.728 194.374 293.73 194.37 293.732C194.367 293.733 194.363 293.735 194.36 293.737C194.356 293.739 194.353 293.74 194.35 293.742C194.346 293.744 194.343 293.745 194.339 293.747C194.336 293.749 194.332 293.751 194.329 293.752C194.325 293.754 194.322 293.756 194.319 293.757C194.315 293.759 194.312 293.761 194.308 293.763C194.305 293.764 194.301 293.766 194.298 293.768C194.295 293.77 194.291 293.771 194.288 293.773C194.284 293.775 194.281 293.776 194.277 293.778C194.274 293.78 194.27 293.782 194.267 293.783C194.264 293.785 194.26 293.787 194.257 293.788C194.253 293.79 194.25 293.792 194.246 293.794C194.243 293.795 194.24 293.797 194.236 293.799C194.233 293.8 194.229 293.802 194.226 293.804C194.222 293.806 194.219 293.807 194.215 293.809C194.212 293.811 194.209 293.812 194.205 293.814C194.202 293.816 194.198 293.818 194.195 293.819C194.191 293.821 194.188 293.823 194.185 293.825C194.181 293.826 194.178 293.828 194.174 293.83C194.171 293.831 194.167 293.833 194.164 293.835C194.16 293.837 194.157 293.838 194.154 293.84C194.15 293.842 194.147 293.843 194.143 293.845C194.14 293.847 194.136 293.849 194.133 293.85C194.13 293.852 194.126 293.854 194.123 293.855C194.119 293.857 194.116 293.859 194.112 293.861C194.109 293.862 194.105 293.864 194.102 293.866C194.099 293.867 194.095 293.869 194.092 293.871C194.088 293.873 194.085 293.874 194.081 293.876C194.078 293.878 194.075 293.88 194.071 293.881C194.068 293.883 194.064 293.885 194.061 293.886C194.057 293.888 194.054 293.89 194.05 293.892C194.047 293.893 194.044 293.895 194.04 293.897C194.037 293.898 194.033 293.9 194.03 293.902C194.026 293.904 194.023 293.905 194.02 293.907C194.016 293.909 194.013 293.91 194.009 293.912C194.006 293.914 194.002 293.916 193.999 293.917C193.995 293.919 193.992 293.921 193.989 293.922C193.985 293.924 193.982 293.926 193.978 293.928C193.975 293.929 193.971 293.931 193.968 293.933C193.965 293.935 193.961 293.936 193.958 293.938C193.954 293.94 193.951 293.941 193.947 293.943C193.944 293.945 193.94 293.947 193.937 293.948C193.934 293.95 193.93 293.952 193.927 293.953C193.923 293.955 193.92 293.957 193.916 293.959C193.913 293.96 193.91 293.962 193.906 293.964C193.903 293.965 193.899 293.967 193.896 293.969C193.892 293.971 193.889 293.972 193.885 293.974C193.882 293.976 193.879 293.977 193.875 293.979C193.872 293.981 193.868 293.983 193.865 293.984C193.861 293.986 193.858 293.988 193.855 293.99C193.851 293.991 193.848 293.993 193.844 293.995C193.841 293.996 193.837 293.998 193.834 294C193.83 294.002 193.827 294.003 193.824 294.005C193.82 294.007 193.817 294.008 193.813 294.01C193.81 294.012 193.806 294.014 193.803 294.015C193.8 294.017 193.796 294.019 193.793 294.02C193.789 294.022 193.786 294.024 193.782 294.026C193.779 294.027 193.775 294.029 193.772 294.031C193.769 294.032 193.765 294.034 193.762 294.036C193.758 294.038 193.755 294.039 193.751 294.041C193.748 294.043 193.745 294.045 193.741 294.046C193.738 294.048 193.734 294.05 193.731 294.051C193.727 294.053 193.724 294.055 193.72 294.057C193.717 294.058 193.714 294.06 193.71 294.062C193.707 294.063 193.703 294.065 193.7 294.067C193.696 294.069 193.693 294.07 193.69 294.072C193.686 294.074 193.683 294.075 193.679 294.077C193.676 294.079 193.672 294.081 193.669 294.082C193.665 294.084 193.662 294.086 193.659 294.087C193.655 294.089 193.652 294.091 193.648 294.093C193.645 294.094 193.641 294.096 193.638 294.098C193.635 294.1 193.631 294.101 193.628 294.103C193.624 294.105 193.621 294.106 193.617 294.108C193.614 294.11 193.61 294.112 193.607 294.113C193.604 294.115 193.6 294.117 193.597 294.118C193.593 294.12 193.59 294.122 193.586 294.124C193.583 294.125 193.58 294.127 193.576 294.129C193.573 294.13 193.569 294.132 193.566 294.134C193.562 294.136 193.559 294.137 193.555 294.139C193.552 294.141 193.549 294.142 193.545 294.144C193.542 294.146 193.538 294.148 193.535 294.149C193.531 294.151 193.528 294.153 193.525 294.155C193.521 294.156 193.518 294.158 193.514 294.16C193.511 294.161 193.507 294.163 193.504 294.165C193.5 294.167 193.497 294.168 193.494 294.17C193.49 294.172 193.487 294.173 193.483 294.175C193.48 294.177 193.476 294.179 193.473 294.18C193.47 294.182 193.466 294.184 193.463 294.185C193.459 294.187 193.456 294.189 193.452 294.191C193.449 294.192 193.445 294.194 193.442 294.196C193.439 294.197 193.435 294.199 193.432 294.201C193.428 294.203 193.425 294.204 193.421 294.206C193.418 294.208 193.415 294.21 193.411 294.211C193.408 294.213 193.404 294.215 193.401 294.216C193.397 294.218 193.394 294.22 193.39 294.222C193.387 294.223 193.384 294.225 193.38 294.227C193.377 294.228 193.373 294.23 193.37 294.232C193.366 294.234 193.363 294.235 193.36 294.237C193.356 294.239 193.353 294.24 193.349 294.242C193.346 294.244 193.342 294.246 193.339 294.247C193.335 294.249 193.332 294.251 193.329 294.252C193.325 294.254 193.322 294.256 193.318 294.258C193.315 294.259 193.311 294.261 193.308 294.263C193.305 294.265 193.301 294.266 193.298 294.268C193.294 294.27 193.291 294.271 193.287 294.273C193.284 294.275 193.28 294.277 193.277 294.278C193.274 294.28 193.27 294.282 193.267 294.283C193.263 294.285 193.26 294.287 193.256 294.289C193.253 294.29 193.25 294.292 193.246 294.294C193.243 294.295 193.239 294.297 193.236 294.299C193.232 294.301 193.229 294.302 193.225 294.304C193.222 294.306 193.219 294.307 193.215 294.309C193.212 294.311 193.208 294.313 193.205 294.314C193.201 294.316 193.198 294.318 193.195 294.32C193.191 294.321 193.188 294.323 193.184 294.325C193.181 294.326 193.177 294.328 193.174 294.33C193.17 294.332 193.167 294.333 193.164 294.335C193.16 294.337 193.157 294.338 193.153 294.34C193.15 294.342 193.146 294.344 193.143 294.345C193.14 294.347 193.136 294.349 193.133 294.35C193.129 294.352 193.126 294.354 193.122 294.356C193.119 294.357 193.115 294.359 193.112 294.361C193.109 294.362 193.105 294.364 193.102 294.366C193.098 294.368 193.095 294.369 193.091 294.371C193.088 294.373 193.085 294.375 193.081 294.376C193.078 294.378 193.074 294.38 193.071 294.381C193.067 294.383 193.064 294.385 193.06 294.387C193.057 294.388 193.054 294.39 193.05 294.392C193.047 294.393 193.043 294.395 193.04 294.397C193.036 294.399 193.033 294.4 193.03 294.402C193.026 294.404 193.023 294.405 193.019 294.407C193.016 294.409 193.012 294.411 193.009 294.412C193.005 294.414 193.002 294.416 192.999 294.417C192.995 294.419 192.992 294.421 192.988 294.423C192.985 294.424 192.981 294.426 192.978 294.428C192.975 294.43 192.971 294.431 192.968 294.433C192.964 294.435 192.961 294.436 192.957 294.438C192.954 294.44 192.95 294.442 192.947 294.443C192.944 294.445 192.94 294.447 192.937 294.448C192.933 294.45 192.93 294.452 192.926 294.454C192.923 294.455 192.92 294.457 192.916 294.459C192.913 294.46 192.909 294.462 192.906 294.464C192.902 294.466 192.899 294.467 192.895 294.469C192.892 294.471 192.889 294.472 192.885 294.474C192.882 294.476 192.878 294.478 192.875 294.479C192.871 294.481 192.868 294.483 192.865 294.485C192.861 294.486 192.858 294.488 192.854 294.49C192.851 294.491 192.847 294.493 192.844 294.495C192.84 294.497 192.837 294.498 192.834 294.5C192.83 294.502 192.827 294.503 192.823 294.505C192.82 294.507 192.816 294.509 192.813 294.51C192.81 294.512 192.806 294.514 192.803 294.515C192.799 294.517 192.796 294.519 192.792 294.521C192.789 294.522 192.785 294.524 192.782 294.526C192.779 294.527 192.775 294.529 192.772 294.531C192.768 294.533 192.765 294.534 192.761 294.536C192.758 294.538 192.755 294.54 192.751 294.541C192.748 294.543 192.744 294.545 192.741 294.546C192.737 294.548 192.734 294.55 192.73 294.552C192.727 294.553 192.724 294.555 192.72 294.557C192.717 294.558 192.713 294.56 192.71 294.562C192.706 294.564 192.703 294.565 192.7 294.567C192.696 294.569 192.693 294.57 192.689 294.572C192.686 294.574 192.682 294.576 192.679 294.577C192.675 294.579 192.672 294.581 192.669 294.582C192.665 294.584 192.662 294.586 192.658 294.588C192.655 294.589 192.651 294.591 192.648 294.593C192.645 294.595 192.641 294.596 192.638 294.598C192.634 294.6 192.631 294.601 192.627 294.603C192.624 294.605 192.62 294.607 192.617 294.608C192.614 294.61 192.61 294.612 192.607 294.613L197.973 305.347C197.977 305.345 197.98 305.343 197.984 305.341C197.987 305.34 197.99 305.338 197.994 305.336C197.997 305.335 198.001 305.333 198.004 305.331C198.008 305.329 198.011 305.328 198.015 305.326C198.018 305.324 198.021 305.322 198.025 305.321C198.028 305.319 198.032 305.317 198.035 305.316C198.039 305.314 198.042 305.312 198.045 305.31C198.049 305.309 198.052 305.307 198.056 305.305C198.059 305.304 198.063 305.302 198.066 305.3C198.07 305.298 198.073 305.297 198.076 305.295C198.08 305.293 198.083 305.292 198.087 305.29C198.09 305.288 198.094 305.286 198.097 305.285C198.1 305.283 198.104 305.281 198.107 305.28C198.111 305.278 198.114 305.276 198.118 305.274C198.121 305.273 198.125 305.271 198.128 305.269C198.131 305.267 198.135 305.266 198.138 305.264C198.142 305.262 198.145 305.261 198.149 305.259C198.152 305.257 198.155 305.255 198.159 305.254C198.162 305.252 198.166 305.25 198.169 305.249C198.173 305.247 198.176 305.245 198.18 305.243C198.183 305.242 198.186 305.24 198.19 305.238C198.193 305.237 198.197 305.235 198.2 305.233C198.204 305.231 198.207 305.23 198.21 305.228C198.214 305.226 198.217 305.225 198.221 305.223C198.224 305.221 198.228 305.219 198.231 305.218C198.235 305.216 198.238 305.214 198.241 305.212C198.245 305.211 198.248 305.209 198.252 305.207C198.255 305.206 198.259 305.204 198.262 305.202C198.265 305.2 198.269 305.199 198.272 305.197C198.276 305.195 198.279 305.194 198.283 305.192C198.286 305.19 198.29 305.188 198.293 305.187C198.296 305.185 198.3 305.183 198.303 305.182C198.307 305.18 198.31 305.178 198.314 305.176C198.317 305.175 198.32 305.173 198.324 305.171C198.327 305.17 198.331 305.168 198.334 305.166C198.338 305.164 198.341 305.163 198.345 305.161C198.348 305.159 198.351 305.157 198.355 305.156C198.358 305.154 198.362 305.152 198.365 305.151C198.369 305.149 198.372 305.147 198.375 305.145C198.379 305.144 198.382 305.142 198.386 305.14C198.389 305.139 198.393 305.137 198.396 305.135C198.4 305.133 198.403 305.132 198.406 305.13C198.41 305.128 198.413 305.127 198.417 305.125C198.42 305.123 198.424 305.121 198.427 305.12C198.43 305.118 198.434 305.116 198.437 305.115C198.441 305.113 198.444 305.111 198.448 305.109C198.451 305.108 198.455 305.106 198.458 305.104C198.461 305.102 198.465 305.101 198.468 305.099C198.472 305.097 198.475 305.096 198.479 305.094C198.482 305.092 198.485 305.09 198.489 305.089C198.492 305.087 198.496 305.085 198.499 305.084C198.503 305.082 198.506 305.08 198.51 305.078C198.513 305.077 198.516 305.075 198.52 305.073C198.523 305.072 198.527 305.07 198.53 305.068C198.534 305.066 198.537 305.065 198.54 305.063C198.544 305.061 198.547 305.06 198.551 305.058C198.554 305.056 198.558 305.054 198.561 305.053C198.565 305.051 198.568 305.049 198.571 305.047C198.575 305.046 198.578 305.044 198.582 305.042C198.585 305.041 198.589 305.039 198.592 305.037C198.595 305.035 198.599 305.034 198.602 305.032C198.606 305.03 198.609 305.029 198.613 305.027C198.616 305.025 198.62 305.023 198.623 305.022C198.626 305.02 198.63 305.018 198.633 305.017C198.637 305.015 198.64 305.013 198.644 305.011C198.647 305.01 198.65 305.008 198.654 305.006C198.657 305.005 198.661 305.003 198.664 305.001C198.668 304.999 198.671 304.998 198.675 304.996C198.678 304.994 198.681 304.992 198.685 304.991C198.688 304.989 198.692 304.987 198.695 304.986C198.699 304.984 198.702 304.982 198.705 304.98C198.709 304.979 198.712 304.977 198.716 304.975C198.719 304.974 198.723 304.972 198.726 304.97C198.73 304.968 198.733 304.967 198.736 304.965C198.74 304.963 198.743 304.962 198.747 304.96C198.75 304.958 198.754 304.956 198.757 304.955C198.76 304.953 198.764 304.951 198.767 304.95C198.771 304.948 198.774 304.946 198.778 304.944C198.781 304.943 198.785 304.941 198.788 304.939C198.791 304.937 198.795 304.936 198.798 304.934C198.802 304.932 198.805 304.931 198.809 304.929C198.812 304.927 198.815 304.925 198.819 304.924C198.822 304.922 198.826 304.92 198.829 304.919C198.833 304.917 198.836 304.915 198.84 304.913C198.843 304.912 198.846 304.91 198.85 304.908C198.853 304.907 198.857 304.905 198.86 304.903C198.864 304.901 198.867 304.9 198.87 304.898C198.874 304.896 198.877 304.895 198.881 304.893C198.884 304.891 198.888 304.889 198.891 304.888C198.895 304.886 198.898 304.884 198.901 304.882C198.905 304.881 198.908 304.879 198.912 304.877C198.915 304.876 198.919 304.874 198.922 304.872C198.925 304.87 198.929 304.869 198.932 304.867C198.936 304.865 198.939 304.864 198.943 304.862C198.946 304.86 198.95 304.858 198.953 304.857C198.956 304.855 198.96 304.853 198.963 304.852C198.967 304.85 198.97 304.848 198.974 304.846C198.977 304.845 198.98 304.843 198.984 304.841C198.987 304.84 198.991 304.838 198.994 304.836C198.998 304.834 199.001 304.833 199.005 304.831C199.008 304.829 199.011 304.827 199.015 304.826C199.018 304.824 199.022 304.822 199.025 304.821C199.029 304.819 199.032 304.817 199.035 304.815C199.039 304.814 199.042 304.812 199.046 304.81C199.049 304.809 199.053 304.807 199.056 304.805C199.06 304.803 199.063 304.802 199.066 304.8C199.07 304.798 199.073 304.797 199.077 304.795C199.08 304.793 199.084 304.791 199.087 304.79C199.09 304.788 199.094 304.786 199.097 304.785C199.101 304.783 199.104 304.781 199.108 304.779C199.111 304.778 199.115 304.776 199.118 304.774C199.121 304.772 199.125 304.771 199.128 304.769C199.132 304.767 199.135 304.766 199.139 304.764C199.142 304.762 199.145 304.76 199.149 304.759C199.152 304.757 199.156 304.755 199.159 304.754C199.163 304.752 199.166 304.75 199.17 304.748C199.173 304.747 199.176 304.745 199.18 304.743C199.183 304.742 199.187 304.74 199.19 304.738C199.194 304.736 199.197 304.735 199.2 304.733C199.204 304.731 199.207 304.73 199.211 304.728C199.214 304.726 199.218 304.724 199.221 304.723C199.225 304.721 199.228 304.719 199.231 304.717C199.235 304.716 199.238 304.714 199.242 304.712C199.245 304.711 199.249 304.709 199.252 304.707C199.255 304.705 199.259 304.704 199.262 304.702C199.266 304.7 199.269 304.699 199.273 304.697C199.276 304.695 199.28 304.693 199.283 304.692C199.286 304.69 199.29 304.688 199.293 304.687C199.297 304.685 199.3 304.683 199.304 304.681C199.307 304.68 199.31 304.678 199.314 304.676C199.317 304.675 199.321 304.673 199.324 304.671C199.328 304.669 199.331 304.668 199.335 304.666C199.338 304.664 199.341 304.662 199.345 304.661C199.348 304.659 199.352 304.657 199.355 304.656C199.359 304.654 199.362 304.652 199.365 304.65C199.369 304.649 199.372 304.647 199.376 304.645C199.379 304.644 199.383 304.642 199.386 304.64C199.39 304.638 199.393 304.637 199.396 304.635C199.4 304.633 199.403 304.632 199.407 304.63C199.41 304.628 199.414 304.626 199.417 304.625C199.42 304.623 199.424 304.621 199.427 304.62C199.431 304.618 199.434 304.616 199.438 304.614C199.441 304.613 199.445 304.611 199.448 304.609C199.451 304.607 199.455 304.606 199.458 304.604C199.462 304.602 199.465 304.601 199.469 304.599C199.472 304.597 199.475 304.595 199.479 304.594C199.482 304.592 199.486 304.59 199.489 304.589C199.493 304.587 199.496 304.585 199.5 304.583C199.503 304.582 199.506 304.58 199.51 304.578C199.513 304.577 199.517 304.575 199.52 304.573C199.524 304.571 199.527 304.57 199.53 304.568C199.534 304.566 199.537 304.565 199.541 304.563C199.544 304.561 199.548 304.559 199.551 304.558C199.555 304.556 199.558 304.554 199.561 304.552C199.565 304.551 199.568 304.549 199.572 304.547C199.575 304.546 199.579 304.544 199.582 304.542C199.585 304.54 199.589 304.539 199.592 304.537C199.596 304.535 199.599 304.534 199.603 304.532C199.606 304.53 199.61 304.528 199.613 304.527C199.616 304.525 199.62 304.523 199.623 304.522C199.627 304.52 199.63 304.518 199.634 304.516C199.637 304.515 199.64 304.513 199.644 304.511C199.647 304.51 199.651 304.508 199.654 304.506C199.658 304.504 199.661 304.503 199.665 304.501C199.668 304.499 199.671 304.497 199.675 304.496C199.678 304.494 199.682 304.492 199.685 304.491C199.689 304.489 199.692 304.487 199.695 304.485C199.699 304.484 199.702 304.482 199.706 304.48C199.709 304.479 199.713 304.477 199.716 304.475C199.72 304.473 199.723 304.472 199.726 304.47C199.73 304.468 199.733 304.467 199.737 304.465C199.74 304.463 199.744 304.461 199.747 304.46C199.75 304.458 199.754 304.456 199.757 304.455C199.761 304.453 199.764 304.451 199.768 304.449C199.771 304.448 199.775 304.446 199.778 304.444C199.781 304.442 199.785 304.441 199.788 304.439C199.792 304.437 199.795 304.436 199.799 304.434C199.802 304.432 199.805 304.43 199.809 304.429C199.812 304.427 199.816 304.425 199.819 304.424C199.823 304.422 199.826 304.42 199.83 304.418C199.833 304.417 199.836 304.415 199.84 304.413C199.843 304.412 199.847 304.41 199.85 304.408C199.854 304.406 199.857 304.405 199.86 304.403C199.864 304.401 199.867 304.4 199.871 304.398C199.874 304.396 199.878 304.394 199.881 304.393C199.885 304.391 199.888 304.389 199.891 304.387C199.895 304.386 199.898 304.384 199.902 304.382C199.905 304.381 199.909 304.379 199.912 304.377C199.915 304.375 199.919 304.374 199.922 304.372C199.926 304.37 199.929 304.369 199.933 304.367C199.936 304.365 199.94 304.363 199.943 304.362C199.946 304.36 199.95 304.358 199.953 304.357C199.957 304.355 199.96 304.353 199.964 304.351C199.967 304.35 199.97 304.348 199.974 304.346C199.977 304.345 199.981 304.343 199.984 304.341C199.988 304.339 199.991 304.338 199.995 304.336C199.998 304.334 200.001 304.332 200.005 304.331C200.008 304.329 200.012 304.327 200.015 304.326C200.019 304.324 200.022 304.322 200.025 304.32C200.029 304.319 200.032 304.317 200.036 304.315C200.039 304.314 200.043 304.312 200.046 304.31C200.05 304.308 200.053 304.307 200.056 304.305C200.06 304.303 200.063 304.302 200.067 304.3C200.07 304.298 200.074 304.296 200.077 304.295C200.08 304.293 200.084 304.291 200.087 304.29C200.091 304.288 200.094 304.286 200.098 304.284C200.101 304.283 200.105 304.281 200.108 304.279C200.111 304.277 200.115 304.276 200.118 304.274C200.122 304.272 200.125 304.271 200.129 304.269C200.132 304.267 200.135 304.265 200.139 304.264C200.142 304.262 200.146 304.26 200.149 304.259C200.153 304.257 200.156 304.255 200.16 304.253C200.163 304.252 200.166 304.25 200.17 304.248C200.173 304.247 200.177 304.245 200.18 304.243C200.184 304.241 200.187 304.24 200.19 304.238C200.194 304.236 200.197 304.235 200.201 304.233C200.204 304.231 200.208 304.229 200.211 304.228C200.215 304.226 200.218 304.224 200.221 304.222C200.225 304.221 200.228 304.219 200.232 304.217C200.235 304.216 200.239 304.214 200.242 304.212C200.245 304.21 200.249 304.209 200.252 304.207C200.256 304.205 200.259 304.204 200.263 304.202C200.266 304.2 200.27 304.198 200.273 304.197C200.276 304.195 200.28 304.193 200.283 304.192C200.287 304.19 200.29 304.188 200.294 304.186C200.297 304.185 200.3 304.183 200.304 304.181C200.307 304.18 200.311 304.178 200.314 304.176C200.318 304.174 200.321 304.173 200.325 304.171C200.328 304.169 200.331 304.167 200.335 304.166C200.338 304.164 200.342 304.162 200.345 304.161C200.349 304.159 200.352 304.157 200.355 304.155C200.359 304.154 200.362 304.152 200.366 304.15C200.369 304.149 200.373 304.147 200.376 304.145C200.38 304.143 200.383 304.142 200.386 304.14C200.39 304.138 200.393 304.137 200.397 304.135C200.4 304.133 200.404 304.131 200.407 304.13C200.41 304.128 200.414 304.126 200.417 304.125C200.421 304.123 200.424 304.121 200.428 304.119C200.431 304.118 200.435 304.116 200.438 304.114C200.441 304.112 200.445 304.111 200.448 304.109C200.452 304.107 200.455 304.106 200.459 304.104C200.462 304.102 200.465 304.1 200.469 304.099C200.472 304.097 200.476 304.095 200.479 304.094C200.483 304.092 200.486 304.09 200.49 304.088C200.493 304.087 200.496 304.085 200.5 304.083C200.503 304.082 200.507 304.08 200.51 304.078C200.514 304.076 200.517 304.075 200.52 304.073C200.524 304.071 200.527 304.07 200.531 304.068C200.534 304.066 200.538 304.064 200.541 304.063C200.545 304.061 200.548 304.059 200.551 304.057C200.555 304.056 200.558 304.054 200.562 304.052C200.565 304.051 200.569 304.049 200.572 304.047C200.575 304.045 200.579 304.044 200.582 304.042C200.586 304.04 200.589 304.039 200.593 304.037C200.596 304.035 200.6 304.033 200.603 304.032C200.606 304.03 200.61 304.028 200.613 304.027C200.617 304.025 200.62 304.023 200.624 304.021C200.627 304.02 200.63 304.018 200.634 304.016C200.637 304.015 200.641 304.013 200.644 304.011C200.648 304.009 200.651 304.008 200.655 304.006C200.658 304.004 200.661 304.002 200.665 304.001C200.668 303.999 200.672 303.997 200.675 303.996C200.679 303.994 200.682 303.992 200.685 303.99C200.689 303.989 200.692 303.987 200.696 303.985C200.699 303.984 200.703 303.982 200.706 303.98C200.71 303.978 200.713 303.977 200.716 303.975C200.72 303.973 200.723 303.972 200.727 303.97C200.73 303.968 200.734 303.966 200.737 303.965C200.74 303.963 200.744 303.961 200.747 303.96C200.751 303.958 200.754 303.956 200.758 303.954C200.761 303.953 200.765 303.951 200.768 303.949C200.771 303.947 200.775 303.946 200.778 303.944C200.782 303.942 200.785 303.941 200.789 303.939C200.792 303.937 200.795 303.935 200.799 303.934C200.802 303.932 200.806 303.93 200.809 303.929C200.813 303.927 200.816 303.925 200.82 303.923C200.823 303.922 200.826 303.92 200.83 303.918C200.833 303.917 200.837 303.915 200.84 303.913C200.844 303.911 200.847 303.91 200.85 303.908C200.854 303.906 200.857 303.905 200.861 303.903C200.864 303.901 200.868 303.899 200.871 303.898C200.875 303.896 200.878 303.894 200.881 303.892C200.885 303.891 200.888 303.889 200.892 303.887C200.895 303.886 200.899 303.884 200.902 303.882C200.905 303.88 200.909 303.879 200.912 303.877C200.916 303.875 200.919 303.874 200.923 303.872C200.926 303.87 200.93 303.868 200.933 303.867C200.936 303.865 200.94 303.863 200.943 303.862C200.947 303.86 200.95 303.858 200.954 303.856C200.957 303.855 200.96 303.853 200.964 303.851C200.967 303.85 200.971 303.848 200.974 303.846C200.978 303.844 200.981 303.843 200.985 303.841C200.988 303.839 200.991 303.837 200.995 303.836C200.998 303.834 201.002 303.832 201.005 303.831C201.009 303.829 201.012 303.827 201.015 303.825C201.019 303.824 201.022 303.822 201.026 303.82C201.029 303.819 201.033 303.817 201.036 303.815C201.04 303.813 201.043 303.812 201.046 303.81C201.05 303.808 201.053 303.807 201.057 303.805C201.06 303.803 201.064 303.801 201.067 303.8C201.07 303.798 201.074 303.796 201.077 303.795C201.081 303.793 201.084 303.791 201.088 303.789C201.091 303.788 201.095 303.786 201.098 303.784C201.101 303.782 201.105 303.781 201.108 303.779C201.112 303.777 201.115 303.776 201.119 303.774C201.122 303.772 201.125 303.77 201.129 303.769C201.132 303.767 201.136 303.765 201.139 303.764C201.143 303.762 201.146 303.76 201.15 303.758C201.153 303.757 201.156 303.755 201.16 303.753C201.163 303.752 201.167 303.75 201.17 303.748C201.174 303.746 201.177 303.745 201.18 303.743C201.184 303.741 201.187 303.74 201.191 303.738C201.194 303.736 201.198 303.734 201.201 303.733C201.205 303.731 201.208 303.729 201.211 303.727C201.215 303.726 201.218 303.724 201.222 303.722C201.225 303.721 201.229 303.719 201.232 303.717C201.235 303.715 201.239 303.714 201.242 303.712C201.246 303.71 201.249 303.709 201.253 303.707C201.256 303.705 201.26 303.703 201.263 303.702C201.266 303.7 201.27 303.698 201.273 303.697C201.277 303.695 201.28 303.693 201.284 303.691C201.287 303.69 201.29 303.688 201.294 303.686C201.297 303.685 201.301 303.683 201.304 303.681C201.308 303.679 201.311 303.678 201.315 303.676C201.318 303.674 201.321 303.672 201.325 303.671C201.328 303.669 201.332 303.667 201.335 303.666C201.339 303.664 201.342 303.662 201.345 303.66C201.349 303.659 201.352 303.657 201.356 303.655C201.359 303.654 201.363 303.652 201.366 303.65C201.37 303.648 201.373 303.647 201.376 303.645C201.38 303.643 201.383 303.642 201.387 303.64C201.39 303.638 201.394 303.636 201.397 303.635C201.4 303.633 201.404 303.631 201.407 303.63C201.411 303.628 201.414 303.626 201.418 303.624C201.421 303.623 201.425 303.621 201.428 303.619C201.431 303.617 201.435 303.616 201.438 303.614C201.442 303.612 201.445 303.611 201.449 303.609C201.452 303.607 201.455 303.605 201.459 303.604C201.462 303.602 201.466 303.6 201.469 303.599C201.473 303.597 201.476 303.595 201.48 303.593C201.483 303.592 201.486 303.59 201.49 303.588C201.493 303.587 201.497 303.585 201.5 303.583C201.504 303.581 201.507 303.58 201.51 303.578C201.514 303.576 201.517 303.575 201.521 303.573C201.524 303.571 201.528 303.569 201.531 303.568C201.535 303.566 201.538 303.564 201.541 303.562C201.545 303.561 201.548 303.559 201.552 303.557C201.555 303.556 201.559 303.554 201.562 303.552C201.565 303.55 201.569 303.549 201.572 303.547C201.576 303.545 201.579 303.544 201.583 303.542C201.586 303.54 201.59 303.538 201.593 303.537C201.596 303.535 201.6 303.533 201.603 303.532C201.607 303.53 201.61 303.528 201.614 303.526C201.617 303.525 201.62 303.523 201.624 303.521C201.627 303.52 201.631 303.518 201.634 303.516C201.638 303.514 201.641 303.513 201.645 303.511C201.648 303.509 201.651 303.507 201.655 303.506C201.658 303.504 201.662 303.502 201.665 303.501C201.669 303.499 201.672 303.497 201.675 303.495C201.679 303.494 201.682 303.492 201.686 303.49C201.689 303.489 201.693 303.487 201.696 303.485C201.7 303.483 201.703 303.482 201.706 303.48C201.71 303.478 201.713 303.477 201.717 303.475C201.72 303.473 201.724 303.471 201.727 303.47C201.73 303.468 201.734 303.466 201.737 303.465C201.741 303.463 201.744 303.461 201.748 303.459C201.751 303.458 201.755 303.456 201.758 303.454C201.761 303.452 201.765 303.451 201.768 303.449C201.772 303.447 201.775 303.446 201.779 303.444C201.782 303.442 201.785 303.44 201.789 303.439C201.792 303.437 201.796 303.435 201.799 303.434C201.803 303.432 201.806 303.43 201.81 303.428C201.813 303.427 201.816 303.425 201.82 303.423C201.823 303.422 201.827 303.42 201.83 303.418C201.834 303.416 201.837 303.415 201.84 303.413C201.844 303.411 201.847 303.41 201.851 303.408C201.854 303.406 201.858 303.404 201.861 303.403C201.865 303.401 201.868 303.399 201.871 303.397C201.875 303.396 201.878 303.394 201.882 303.392C201.885 303.391 201.889 303.389 201.892 303.387C201.895 303.385 201.899 303.384 201.902 303.382C201.906 303.38 201.909 303.379 201.913 303.377C201.916 303.375 201.92 303.373 201.923 303.372C201.926 303.37 201.93 303.368 201.933 303.367C201.937 303.365 201.94 303.363 201.944 303.361C201.947 303.36 201.95 303.358 201.954 303.356C201.957 303.355 201.961 303.353 201.964 303.351C201.968 303.349 201.971 303.348 201.975 303.346C201.978 303.344 201.981 303.342 201.985 303.341C201.988 303.339 201.992 303.337 201.995 303.336C201.999 303.334 202.002 303.332 202.005 303.33C202.009 303.329 202.012 303.327 202.016 303.325C202.019 303.324 202.023 303.322 202.026 303.32C202.03 303.318 202.033 303.317 202.036 303.315C202.04 303.313 202.043 303.312 202.047 303.31C202.05 303.308 202.054 303.306 202.057 303.305C202.06 303.303 202.064 303.301 202.067 303.3C202.071 303.298 202.074 303.296 202.078 303.294C202.081 303.293 202.085 303.291 202.088 303.289C202.091 303.287 202.095 303.286 202.098 303.284C202.102 303.282 202.105 303.281 202.109 303.279C202.112 303.277 202.115 303.275 202.119 303.274C202.122 303.272 202.126 303.27 202.129 303.269C202.133 303.267 202.136 303.265 202.14 303.263C202.143 303.262 202.146 303.26 202.15 303.258C202.153 303.257 202.157 303.255 202.16 303.253C202.164 303.251 202.167 303.25 202.17 303.248C202.174 303.246 202.177 303.245 202.181 303.243C202.184 303.241 202.188 303.239 202.191 303.238C202.195 303.236 202.198 303.234 202.201 303.232C202.205 303.231 202.208 303.229 202.212 303.227C202.215 303.226 202.219 303.224 202.222 303.222C202.225 303.22 202.229 303.219 202.232 303.217C202.236 303.215 202.239 303.214 202.243 303.212C202.246 303.21 202.25 303.208 202.253 303.207C202.256 303.205 202.26 303.203 202.263 303.202C202.267 303.2 202.27 303.198 202.274 303.196C202.277 303.195 202.28 303.193 202.284 303.191C202.287 303.19 202.291 303.188 202.294 303.186C202.298 303.184 202.301 303.183 202.305 303.181C202.308 303.179 202.311 303.177 202.315 303.176C202.318 303.174 202.322 303.172 202.325 303.171C202.329 303.169 202.332 303.167 202.335 303.165C202.339 303.164 202.342 303.162 202.346 303.16C202.349 303.159 202.353 303.157 202.356 303.155C202.36 303.153 202.363 303.152 202.366 303.15C202.37 303.148 202.373 303.147 202.377 303.145C202.38 303.143 202.384 303.141 202.387 303.14C202.39 303.138 202.394 303.136 202.397 303.135C202.401 303.133 202.404 303.131 202.408 303.129C202.411 303.128 202.415 303.126 202.418 303.124C202.421 303.122 202.425 303.121 202.428 303.119C202.432 303.117 202.435 303.116 202.439 303.114C202.442 303.112 202.445 303.11 202.449 303.109C202.452 303.107 202.456 303.105 202.459 303.104C202.463 303.102 202.466 303.1 202.47 303.098C202.473 303.097 202.476 303.095 202.48 303.093C202.483 303.092 202.487 303.09 202.49 303.088C202.494 303.086 202.497 303.085 202.5 303.083C202.504 303.081 202.507 303.08 202.511 303.078C202.514 303.076 202.518 303.074 202.521 303.073C202.525 303.071 202.528 303.069 202.531 303.067C202.535 303.066 202.538 303.064 202.542 303.062C202.545 303.061 202.549 303.059 202.552 303.057C202.555 303.055 202.559 303.054 202.562 303.052C202.566 303.05 202.569 303.049 202.573 303.047C202.576 303.045 202.58 303.043 202.583 303.042C202.586 303.04 202.59 303.038 202.593 303.037C202.597 303.035 202.6 303.033 202.604 303.031C202.607 303.03 202.61 303.028 202.614 303.026C202.617 303.025 202.621 303.023 202.624 303.021C202.628 303.019 202.631 303.018 202.635 303.016C202.638 303.014 202.641 303.012 202.645 303.011C202.648 303.009 202.652 303.007 202.655 303.006C202.659 303.004 202.662 303.002 202.665 303C202.669 302.999 202.672 302.997 202.676 302.995C202.679 302.994 202.683 302.992 202.686 302.99C202.69 302.988 202.693 302.987 202.696 302.985C202.7 302.983 202.703 302.982 202.707 302.98C202.71 302.978 202.714 302.976 202.717 302.975C202.72 302.973 202.724 302.971 202.727 302.97C202.731 302.968 202.734 302.966 202.738 302.964C202.741 302.963 202.745 302.961 202.748 302.959C202.751 302.957 202.755 302.956 202.758 302.954C202.762 302.952 202.765 302.951 202.769 302.949C202.772 302.947 202.775 302.945 202.779 302.944C202.782 302.942 202.786 302.94 202.789 302.939C202.793 302.937 202.796 302.935 202.8 302.933C202.803 302.932 202.806 302.93 202.81 302.928C202.813 302.927 202.817 302.925 202.82 302.923C202.824 302.921 202.827 302.92 202.83 302.918C202.834 302.916 202.837 302.915 202.841 302.913C202.844 302.911 202.848 302.909 202.851 302.908C202.855 302.906 202.858 302.904 202.861 302.902C202.865 302.901 202.868 302.899 202.872 302.897C202.875 302.896 202.879 302.894 202.882 302.892C202.885 302.89 202.889 302.889 202.892 302.887C202.896 302.885 202.899 302.884 202.903 302.882C202.906 302.88 202.91 302.878 202.913 302.877C202.916 302.875 202.92 302.873 202.923 302.872C202.927 302.87 202.93 302.868 202.934 302.866C202.937 302.865 202.94 302.863 202.944 302.861C202.947 302.86 202.951 302.858 202.954 302.856C202.958 302.854 202.961 302.853 202.965 302.851C202.968 302.849 202.971 302.847 202.975 302.846C202.978 302.844 202.982 302.842 202.985 302.841C202.989 302.839 202.992 302.837 202.995 302.835C202.999 302.834 203.002 302.832 203.006 302.83C203.009 302.829 203.013 302.827 203.016 302.825C203.02 302.823 203.023 302.822 203.026 302.82C203.03 302.818 203.033 302.817 203.037 302.815C203.04 302.813 203.044 302.811 203.047 302.81C203.05 302.808 203.054 302.806 203.057 302.805C203.061 302.803 203.064 302.801 203.068 302.799C203.071 302.798 203.075 302.796 203.078 302.794C203.081 302.792 203.085 302.791 203.088 302.789C203.092 302.787 203.095 302.786 203.099 302.784C203.102 302.782 203.105 302.78 203.109 302.779C203.112 302.777 203.116 302.775 203.119 302.774C203.123 302.772 203.126 302.77 203.13 302.768C203.133 302.767 203.136 302.765 203.14 302.763C203.143 302.762 203.147 302.76 203.15 302.758C203.154 302.756 203.157 302.755 203.16 302.753C203.164 302.751 203.167 302.75 203.171 302.748C203.174 302.746 203.178 302.744 203.181 302.743C203.185 302.741 203.188 302.739 203.191 302.737C203.195 302.736 203.198 302.734 203.202 302.732C203.205 302.731 203.209 302.729 203.212 302.727C203.215 302.725 203.219 302.724 203.222 302.722C203.226 302.72 203.229 302.719 203.233 302.717C203.236 302.715 203.24 302.713 203.243 302.712C203.246 302.71 203.25 302.708 203.253 302.707L197.887 291.973ZM193.183 294.362C192.051 294.787 191.003 294.97 190.01 294.97V306.97C192.537 306.97 195.009 306.493 197.397 305.598L193.183 294.362Z" fill="#232323"/>
</svg>
